<svg xmlns="http://www.w3.org/2000/svg" xmlns:xlink="http://www.w3.org/1999/xlink" width="500" zoomAndPan="magnify" viewBox="0 0 375 374.999991" height="500" preserveAspectRatio="xMidYMid meet" version="1.0"><defs><clipPath id="b83d27b173"><path d="M 175.375 161.363281 L 227.171875 161.363281 L 227.171875 207.207031 L 175.375 207.207031 Z M 175.375 161.363281 " clip-rule="nonzero"/></clipPath></defs><g clip-path="url(#b83d27b173)"><path fill="#222222" d="M 175.375 161.363281 L 227.128906 161.363281 L 227.128906 207.207031 L 175.375 207.207031 Z M 175.375 161.363281 " fill-opacity="1" fill-rule="nonzero"/></g><path fill="#ffffff" d="M 241.425781 194.207031 C 232.039062 194.207031 224.433594 186.601562 224.433594 177.214844 C 224.433594 167.832031 232.039062 160.222656 241.425781 160.222656 C 250.808594 160.222656 258.417969 167.832031 258.417969 177.214844 C 258.417969 186.601562 250.808594 194.207031 241.425781 194.207031 Z M 184.785156 194.207031 C 175.402344 194.207031 167.792969 186.601562 167.792969 177.214844 C 167.792969 167.832031 175.402344 160.222656 184.785156 160.222656 C 194.171875 160.222656 201.777344 167.832031 201.777344 177.214844 C 201.777344 186.601562 194.171875 194.207031 184.785156 194.207031 Z M 128.144531 194.207031 C 118.761719 194.207031 111.152344 186.601562 111.152344 177.214844 C 111.152344 167.832031 118.761719 160.222656 128.144531 160.222656 C 137.53125 160.222656 145.136719 167.832031 145.136719 177.214844 C 145.136719 186.601562 137.53125 194.207031 128.144531 194.207031 Z M 189.238281 69.558594 C 113.058594 68.058594 50.355469 115 49.183594 174.40625 C 48.777344 195.058594 55.867188 214.5 68.484375 231.136719 L 68.480469 231.136719 C 90.175781 259.011719 66.496094 306.929688 66.496094 306.929688 L 136.414062 276.820312 C 151.476562 281.578125 167.84375 284.351562 184.996094 284.691406 C 261.175781 286.191406 323.878906 239.25 325.050781 179.84375 C 326.222656 120.4375 265.414062 71.0625 189.238281 69.558594 " fill-opacity="1" fill-rule="evenodd"/></svg>