<svg xmlns="http://www.w3.org/2000/svg" xmlns:xlink="http://www.w3.org/1999/xlink" width="500" zoomAndPan="magnify" viewBox="0 0 375 374.999991" height="500" preserveAspectRatio="xMidYMid meet" version="1.0"><defs><clipPath id="b3026a7d8a"><path d="M 138.859375 143.496094 L 222.453125 143.496094 L 222.453125 221.683594 L 138.859375 221.683594 Z M 138.859375 143.496094 " clip-rule="nonzero"/></clipPath><clipPath id="adc7deb333"><path d="M 70.15625 143.496094 L 138.859375 143.496094 L 138.859375 221.683594 L 70.15625 221.683594 Z M 70.15625 143.496094 " clip-rule="nonzero"/></clipPath><clipPath id="c3f3e9d3b7"><path d="M 224.285156 143.496094 L 278.070312 143.496094 L 278.070312 221.683594 L 224.285156 221.683594 Z M 224.285156 143.496094 " clip-rule="nonzero"/></clipPath><clipPath id="8e5e99aa64"><path d="M 22 54 L 352 54 L 352 337.363281 L 22 337.363281 Z M 22 54 " clip-rule="nonzero"/></clipPath></defs><g clip-path="url(#b3026a7d8a)"><path fill="#42e2b8" d="M 138.859375 143.496094 L 222.546875 143.496094 L 222.546875 221.683594 L 138.859375 221.683594 Z M 138.859375 143.496094 " fill-opacity="1" fill-rule="nonzero"/></g><g clip-path="url(#adc7deb333)"><path fill="#ff4f81" d="M 70.15625 143.496094 L 138.859375 143.496094 L 138.859375 221.59375 L 70.15625 221.59375 Z M 70.15625 143.496094 " fill-opacity="1" fill-rule="nonzero"/></g><g clip-path="url(#c3f3e9d3b7)"><path fill="#ffbd39" d="M 224.285156 143.496094 L 278.070312 143.496094 L 278.070312 221.648438 L 224.285156 221.648438 Z M 224.285156 143.496094 " fill-opacity="1" fill-rule="nonzero"/></g><g clip-path="url(#8e5e99aa64)"><path fill="#ffffff" d="M 251.851562 202.9375 C 240.652344 202.9375 231.574219 193.859375 231.574219 182.664062 C 231.574219 171.464844 240.652344 162.382812 251.851562 162.382812 C 263.050781 162.382812 272.128906 171.464844 272.128906 182.664062 C 272.128906 193.859375 263.050781 202.9375 251.851562 202.9375 Z M 184.261719 202.9375 C 173.0625 202.9375 163.984375 193.859375 163.984375 182.664062 C 163.984375 171.464844 173.0625 162.382812 184.261719 162.382812 C 195.460938 162.382812 204.539062 171.464844 204.539062 182.664062 C 204.539062 193.859375 195.460938 202.9375 184.261719 202.9375 Z M 116.671875 202.9375 C 105.472656 202.9375 96.394531 193.859375 96.394531 182.664062 C 96.394531 171.464844 105.472656 162.382812 116.671875 162.382812 C 127.871094 162.382812 136.949219 171.464844 136.949219 182.664062 C 136.949219 193.859375 127.871094 202.9375 116.671875 202.9375 Z M 189.574219 54.191406 C 98.667969 52.398438 23.839844 108.417969 22.445312 179.308594 C 21.957031 203.953125 30.417969 227.152344 45.472656 247.007812 L 45.46875 247.007812 C 71.363281 280.269531 43.101562 337.457031 43.101562 337.457031 L 126.539062 301.523438 C 144.511719 307.203125 164.042969 310.511719 184.515625 310.914062 C 275.417969 312.703125 350.246094 256.691406 351.644531 185.796875 C 353.042969 114.90625 280.480469 55.984375 189.574219 54.191406 " fill-opacity="1" fill-rule="evenodd"/></g></svg>