<svg xmlns="http://www.w3.org/2000/svg" xmlns:xlink="http://www.w3.org/1999/xlink" width="500" zoomAndPan="magnify" viewBox="0 0 375 374.999991" height="500" preserveAspectRatio="xMidYMid meet" version="1.0"><defs><g/><clipPath id="682edf2da6"><path d="M 176.066406 163.847656 L 225.484375 163.847656 L 225.484375 208.996094 L 176.066406 208.996094 Z M 176.066406 163.847656 " clip-rule="nonzero"/></clipPath><clipPath id="1cd3f37118"><path d="M 194.890625 172.050781 L 206.660156 172.050781 L 206.660156 200.792969 L 194.890625 200.792969 Z M 194.890625 172.050781 " clip-rule="nonzero"/></clipPath><clipPath id="b2cc68f7af"><path d="M 187.5 172.050781 L 194.890625 172.050781 L 194.890625 200.792969 L 187.5 200.792969 Z M 187.5 172.050781 " clip-rule="nonzero"/></clipPath><clipPath id="14a72156e0"><path d="M 206.660156 174.242188 L 214.050781 174.242188 L 214.050781 198.601562 L 206.660156 198.601562 Z M 206.660156 174.242188 " clip-rule="nonzero"/></clipPath><clipPath id="e5a4e5dd54"><path d="M 178.449219 168.273438 L 223 168.273438 L 223 206.523438 L 178.449219 206.523438 Z M 178.449219 168.273438 " clip-rule="nonzero"/></clipPath></defs><g clip-path="url(#682edf2da6)"><path fill="#222222" d="M 176.066406 163.847656 L 225.445312 163.847656 L 225.445312 208.996094 L 176.066406 208.996094 Z M 176.066406 163.847656 " fill-opacity="1" fill-rule="nonzero"/></g><g clip-path="url(#1cd3f37118)"><path fill="#42e2b8" d="M 194.890625 172.050781 L 206.660156 172.050781 L 206.660156 200.789062 L 194.890625 200.789062 Z M 194.890625 172.050781 " fill-opacity="1" fill-rule="nonzero"/></g><g fill="#222222" fill-opacity="1"><g transform="translate(46.193085, 223.985923)"><g><path d="M 8.28125 0 L 8.28125 -118.75 L 32.71875 -118.75 L 32.71875 0 Z M 8.28125 0 "/></g></g></g><g fill="#222222" fill-opacity="1"><g transform="translate(75.46099, 223.985923)"><g><path d="M 14.96875 -8.421875 C 7.101562 -15.421875 3.171875 -24.394531 3.171875 -35.34375 C 3.171875 -46.300781 7.265625 -55.300781 15.453125 -62.34375 C 23.648438 -69.382812 33.78125 -72.90625 45.84375 -72.90625 C 57.71875 -72.90625 67.726562 -69.359375 75.875 -62.265625 C 84.019531 -55.179688 88.09375 -46.207031 88.09375 -35.34375 C 88.09375 -24.488281 84.109375 -15.535156 76.140625 -8.484375 C 68.179688 -1.441406 58.082031 2.078125 45.84375 2.078125 C 33.132812 2.078125 22.84375 -1.421875 14.96875 -8.421875 Z M 33.890625 -47.359375 C 30.722656 -44.234375 29.140625 -40.226562 29.140625 -35.34375 C 29.140625 -30.46875 30.65625 -26.488281 33.6875 -23.40625 C 36.726562 -20.320312 40.734375 -18.78125 45.703125 -18.78125 C 50.492188 -18.78125 54.429688 -20.34375 57.515625 -23.46875 C 60.597656 -26.601562 62.140625 -30.5625 62.140625 -35.34375 C 62.140625 -40.226562 60.550781 -44.234375 57.375 -47.359375 C 54.195312 -50.492188 50.304688 -52.0625 45.703125 -52.0625 C 41.003906 -52.0625 37.066406 -50.492188 33.890625 -47.359375 Z M 33.890625 -47.359375 "/></g></g></g><g fill="#222222" fill-opacity="1"><g transform="translate(154.984331, 223.985923)"><g><path d="M 14.96875 -8.421875 C 7.101562 -15.421875 3.171875 -24.394531 3.171875 -35.34375 C 3.171875 -46.300781 7.265625 -55.300781 15.453125 -62.34375 C 23.648438 -69.382812 33.78125 -72.90625 45.84375 -72.90625 C 57.71875 -72.90625 67.726562 -69.359375 75.875 -62.265625 C 84.019531 -55.179688 88.09375 -46.207031 88.09375 -35.34375 C 88.09375 -24.488281 84.109375 -15.535156 76.140625 -8.484375 C 68.179688 -1.441406 58.082031 2.078125 45.84375 2.078125 C 33.132812 2.078125 22.84375 -1.421875 14.96875 -8.421875 Z M 33.890625 -47.359375 C 30.722656 -44.234375 29.140625 -40.226562 29.140625 -35.34375 C 29.140625 -30.46875 30.65625 -26.488281 33.6875 -23.40625 C 36.726562 -20.320312 40.734375 -18.78125 45.703125 -18.78125 C 50.492188 -18.78125 54.429688 -20.34375 57.515625 -23.46875 C 60.597656 -26.601562 62.140625 -30.5625 62.140625 -35.34375 C 62.140625 -40.226562 60.550781 -44.234375 57.375 -47.359375 C 54.195312 -50.492188 50.304688 -52.0625 45.703125 -52.0625 C 41.003906 -52.0625 37.066406 -50.492188 33.890625 -47.359375 Z M 33.890625 -47.359375 "/></g></g></g><g fill="#222222" fill-opacity="1"><g transform="translate(234.507677, 223.985923)"><g><path d="M 81.1875 -62.0625 C 87.8125 -54.84375 91.125 -45.984375 91.125 -35.484375 C 91.125 -24.992188 87.8125 -16.109375 81.1875 -8.828125 C 74.5625 -1.554688 66.140625 2.078125 55.921875 2.078125 C 46.535156 2.078125 38.800781 -0.867188 32.71875 -6.765625 L 32.71875 35.90625 L 8.28125 35.90625 L 8.28125 -70.828125 L 32.453125 -70.828125 L 32.453125 -62.828125 L 32.71875 -62.828125 C 38.800781 -69.546875 46.535156 -72.90625 55.921875 -72.90625 C 66.140625 -72.90625 74.5625 -69.289062 81.1875 -62.0625 Z M 60.40625 -23.46875 C 63.582031 -26.601562 65.171875 -30.609375 65.171875 -35.484375 C 65.171875 -40.359375 63.648438 -44.335938 60.609375 -47.421875 C 57.578125 -50.515625 53.578125 -52.0625 48.609375 -52.0625 C 43.816406 -52.0625 39.878906 -50.492188 36.796875 -47.359375 C 33.710938 -44.234375 32.171875 -40.273438 32.171875 -35.484375 C 32.171875 -30.609375 33.757812 -26.601562 36.9375 -23.46875 C 40.113281 -20.34375 44.003906 -18.78125 48.609375 -18.78125 C 53.296875 -18.78125 57.226562 -20.34375 60.40625 -23.46875 Z M 60.40625 -23.46875 "/></g></g></g><g clip-path="url(#b2cc68f7af)"><path fill="#ff4f81" d="M 187.5 172.050781 L 194.890625 172.050781 L 194.890625 200.804688 L 187.5 200.804688 Z M 187.5 172.050781 " fill-opacity="1" fill-rule="nonzero"/></g><g clip-path="url(#14a72156e0)"><path fill="#ffbd39" d="M 206.660156 174.242188 L 214.050781 174.242188 L 214.050781 198.605469 L 206.660156 198.605469 Z M 206.660156 174.242188 " fill-opacity="1" fill-rule="nonzero"/></g><g clip-path="url(#e5a4e5dd54)"><path fill="#ffffff" d="M 209.453125 188.578125 C 207.941406 188.578125 206.71875 187.351562 206.71875 185.84375 C 206.71875 184.332031 207.941406 183.109375 209.453125 183.109375 C 210.964844 183.109375 212.1875 184.332031 212.1875 185.84375 C 212.1875 187.351562 210.964844 188.578125 209.453125 188.578125 Z M 200.339844 188.578125 C 198.828125 188.578125 197.601562 187.351562 197.601562 185.84375 C 197.601562 184.332031 198.828125 183.109375 200.339844 183.109375 C 201.847656 183.109375 203.074219 184.332031 203.074219 185.84375 C 203.074219 187.351562 201.847656 188.578125 200.339844 188.578125 Z M 191.222656 188.578125 C 189.710938 188.578125 188.488281 187.351562 188.488281 185.84375 C 188.488281 184.332031 189.710938 183.109375 191.222656 183.109375 C 192.734375 183.109375 193.957031 184.332031 193.957031 185.84375 C 193.957031 187.351562 192.734375 188.578125 191.222656 188.578125 Z M 201.054688 168.515625 C 188.792969 168.273438 178.703125 175.828125 178.515625 185.390625 C 178.449219 188.714844 179.589844 191.84375 181.621094 194.519531 C 185.113281 199.007812 181.300781 206.71875 181.300781 206.71875 L 192.554688 201.871094 C 194.976562 202.636719 197.613281 203.085938 200.371094 203.140625 C 212.632812 203.378906 222.722656 195.828125 222.910156 186.265625 C 223.101562 176.703125 213.316406 168.757812 201.054688 168.515625 " fill-opacity="1" fill-rule="evenodd"/></g></svg>