<svg xmlns="http://www.w3.org/2000/svg" xmlns:xlink="http://www.w3.org/1999/xlink" width="500" zoomAndPan="magnify" viewBox="0 0 375 374.999991" height="500" preserveAspectRatio="xMidYMid meet" version="1.0"><defs><g/><clipPath id="6dd2d0ef9e"><path d="M 175.375 161.363281 L 227.171875 161.363281 L 227.171875 207.207031 L 175.375 207.207031 Z M 175.375 161.363281 " clip-rule="nonzero"/></clipPath><clipPath id="2b6afd0851"><path d="M 179 168.753906 L 223.949219 168.753906 L 223.949219 207.003906 L 179 207.003906 Z M 179 168.753906 " clip-rule="nonzero"/></clipPath></defs><g fill="#222222" fill-opacity="1"><g transform="translate(46.193085, 222.908287)"><g><path d="M 8.28125 0 L 8.28125 -118.75 L 32.71875 -118.75 L 32.71875 0 Z M 8.28125 0 "/></g></g></g><g fill="#222222" fill-opacity="1"><g transform="translate(75.46099, 222.908287)"><g><path d="M 14.96875 -8.421875 C 7.101562 -15.421875 3.171875 -24.394531 3.171875 -35.34375 C 3.171875 -46.300781 7.265625 -55.300781 15.453125 -62.34375 C 23.648438 -69.382812 33.78125 -72.90625 45.84375 -72.90625 C 57.71875 -72.90625 67.726562 -69.359375 75.875 -62.265625 C 84.019531 -55.179688 88.09375 -46.207031 88.09375 -35.34375 C 88.09375 -24.488281 84.109375 -15.535156 76.140625 -8.484375 C 68.179688 -1.441406 58.082031 2.078125 45.84375 2.078125 C 33.132812 2.078125 22.84375 -1.421875 14.96875 -8.421875 Z M 33.890625 -47.359375 C 30.722656 -44.234375 29.140625 -40.226562 29.140625 -35.34375 C 29.140625 -30.46875 30.65625 -26.488281 33.6875 -23.40625 C 36.726562 -20.320312 40.734375 -18.78125 45.703125 -18.78125 C 50.492188 -18.78125 54.429688 -20.34375 57.515625 -23.46875 C 60.597656 -26.601562 62.140625 -30.5625 62.140625 -35.34375 C 62.140625 -40.226562 60.550781 -44.234375 57.375 -47.359375 C 54.195312 -50.492188 50.304688 -52.0625 45.703125 -52.0625 C 41.003906 -52.0625 37.066406 -50.492188 33.890625 -47.359375 Z M 33.890625 -47.359375 "/></g></g></g><g fill="#222222" fill-opacity="1"><g transform="translate(154.984331, 222.908287)"><g><path d="M 14.96875 -8.421875 C 7.101562 -15.421875 3.171875 -24.394531 3.171875 -35.34375 C 3.171875 -46.300781 7.265625 -55.300781 15.453125 -62.34375 C 23.648438 -69.382812 33.78125 -72.90625 45.84375 -72.90625 C 57.71875 -72.90625 67.726562 -69.359375 75.875 -62.265625 C 84.019531 -55.179688 88.09375 -46.207031 88.09375 -35.34375 C 88.09375 -24.488281 84.109375 -15.535156 76.140625 -8.484375 C 68.179688 -1.441406 58.082031 2.078125 45.84375 2.078125 C 33.132812 2.078125 22.84375 -1.421875 14.96875 -8.421875 Z M 33.890625 -47.359375 C 30.722656 -44.234375 29.140625 -40.226562 29.140625 -35.34375 C 29.140625 -30.46875 30.65625 -26.488281 33.6875 -23.40625 C 36.726562 -20.320312 40.734375 -18.78125 45.703125 -18.78125 C 50.492188 -18.78125 54.429688 -20.34375 57.515625 -23.46875 C 60.597656 -26.601562 62.140625 -30.5625 62.140625 -35.34375 C 62.140625 -40.226562 60.550781 -44.234375 57.375 -47.359375 C 54.195312 -50.492188 50.304688 -52.0625 45.703125 -52.0625 C 41.003906 -52.0625 37.066406 -50.492188 33.890625 -47.359375 Z M 33.890625 -47.359375 "/></g></g></g><g fill="#222222" fill-opacity="1"><g transform="translate(234.507677, 222.908287)"><g><path d="M 81.1875 -62.0625 C 87.8125 -54.84375 91.125 -45.984375 91.125 -35.484375 C 91.125 -24.992188 87.8125 -16.109375 81.1875 -8.828125 C 74.5625 -1.554688 66.140625 2.078125 55.921875 2.078125 C 46.535156 2.078125 38.800781 -0.867188 32.71875 -6.765625 L 32.71875 35.90625 L 8.28125 35.90625 L 8.28125 -70.828125 L 32.453125 -70.828125 L 32.453125 -62.828125 L 32.71875 -62.828125 C 38.800781 -69.546875 46.535156 -72.90625 55.921875 -72.90625 C 66.140625 -72.90625 74.5625 -69.289062 81.1875 -62.0625 Z M 60.40625 -23.46875 C 63.582031 -26.601562 65.171875 -30.609375 65.171875 -35.484375 C 65.171875 -40.359375 63.648438 -44.335938 60.609375 -47.421875 C 57.578125 -50.515625 53.578125 -52.0625 48.609375 -52.0625 C 43.816406 -52.0625 39.878906 -50.492188 36.796875 -47.359375 C 33.710938 -44.234375 32.171875 -40.273438 32.171875 -35.484375 C 32.171875 -30.609375 33.757812 -26.601562 36.9375 -23.46875 C 40.113281 -20.34375 44.003906 -18.78125 48.609375 -18.78125 C 53.296875 -18.78125 57.226562 -20.34375 60.40625 -23.46875 Z M 60.40625 -23.46875 "/></g></g></g><g clip-path="url(#6dd2d0ef9e)"><path fill="#222222" d="M 175.375 161.363281 L 227.128906 161.363281 L 227.128906 207.207031 L 175.375 207.207031 Z M 175.375 161.363281 " fill-opacity="1" fill-rule="nonzero"/></g><g clip-path="url(#2b6afd0851)"><path fill="#ffffff" d="M 209.949219 189.058594 C 208.441406 189.058594 207.214844 187.832031 207.214844 186.324219 C 207.214844 184.8125 208.441406 183.589844 209.949219 183.589844 C 211.460938 183.589844 212.683594 184.8125 212.683594 186.324219 C 212.683594 187.832031 211.460938 189.058594 209.949219 189.058594 Z M 200.835938 189.058594 C 199.324219 189.058594 198.101562 187.832031 198.101562 186.324219 C 198.101562 184.8125 199.324219 183.589844 200.835938 183.589844 C 202.347656 183.589844 203.570312 184.8125 203.570312 186.324219 C 203.570312 187.832031 202.347656 189.058594 200.835938 189.058594 Z M 191.71875 189.058594 C 190.210938 189.058594 188.984375 187.832031 188.984375 186.324219 C 188.984375 184.8125 190.210938 183.589844 191.71875 183.589844 C 193.230469 183.589844 194.453125 184.8125 194.453125 186.324219 C 194.453125 187.832031 193.230469 189.058594 191.71875 189.058594 Z M 201.550781 168.996094 C 189.292969 168.753906 179.199219 176.308594 179.011719 185.871094 C 178.945312 189.195312 180.085938 192.324219 182.117188 195 C 185.609375 199.488281 181.796875 207.199219 181.796875 207.199219 L 193.050781 202.351562 C 195.476562 203.117188 198.109375 203.566406 200.871094 203.621094 C 213.128906 203.859375 223.21875 196.308594 223.410156 186.746094 C 223.597656 177.183594 213.8125 169.238281 201.550781 168.996094 " fill-opacity="1" fill-rule="evenodd"/></g></svg>